<svg width="32" height="32" viewBox="0 0 32 32" fill="none" xmlns="http://www.w3.org/2000/svg">
<g id="Daily Log">
<g id="Group">
<path id="Vector" d="M18.5536 10.094V8C18.5536 7.44771 18.1058 7 17.5536 7H10.9517C10.4263 7 10 7.42311 10 7.94445V23.0555C10 23.5769 10.4263 24 10.9517 24H22.2422C22.7675 24 23.1939 23.5769 23.1939 23.0555V12.6051C23.1939 12.0528 22.7462 11.6051 22.1939 11.6051H20.0762C19.2369 11.6051 18.5536 10.927 18.5536 10.094ZM20.7215 20.6H12.4724C12.2098 20.6 11.9966 20.3885 11.9966 20.1278C11.9966 19.8671 12.2098 19.6556 12.4724 19.6556H20.7215C20.9841 19.6556 21.1973 19.8671 21.1973 20.1278C21.1973 20.3885 20.9841 20.6 20.7215 20.6ZM20.7215 17.5154H12.4724C12.2098 17.5154 11.9966 17.3039 11.9966 17.0432C11.9966 16.7825 12.2098 16.571 12.4724 16.571H20.7215C20.9841 16.571 21.1973 16.7825 21.1973 17.0432C21.1973 17.3039 20.9841 17.5154 20.7215 17.5154ZM21.1973 13.9568C21.1973 14.2175 20.9841 14.429 20.7215 14.429H12.4724C12.2098 14.429 11.9966 14.2175 11.9966 13.9568C11.9966 13.6961 12.2098 13.4846 12.4724 13.4846H20.7215C20.9841 13.4846 21.1973 13.6961 21.1973 13.9568Z" fill="white"/>
<path id="Vector_2" d="M20.5647 10.6957H22.2063C22.6528 10.6957 22.8754 10.1549 22.5583 9.84056L20.5449 7.8446C20.2293 7.53173 19.6929 7.75529 19.6929 8.19969V9.83137C19.6929 10.3085 20.0835 10.6957 20.5647 10.6957Z" fill="white"/>
</g>
</g>
</svg>
