<svg width="20" height="20" viewBox="0 0 20 20" fill="none" xmlns="http://www.w3.org/2000/svg">
<g id="Frame">
<g id="Group 1000004791">
<path id="Vector" d="M3.58824 16.5H16.2941C16.7153 16.5 17.1193 16.3327 17.4172 16.0348C17.715 15.737 17.8824 15.333 17.8824 14.9118V6.97059C17.8824 6.54936 17.715 6.14539 17.4172 5.84754C17.1193 5.54968 16.7153 5.38235 16.2941 5.38235H9.99676C9.73517 5.381 9.47796 5.31505 9.24799 5.19037C9.01802 5.06568 8.8224 4.88613 8.67853 4.66765L8.02735 3.71471C7.88348 3.49623 7.68786 3.31667 7.45789 3.19199C7.22792 3.0673 6.97071 3.00135 6.70912 3H3.58824C3.16701 3 2.76304 3.16733 2.46518 3.46518C2.16733 3.76304 2 4.16701 2 4.58824V14.9118C2 15.7853 2.71471 16.5 3.58824 16.5Z" stroke="#1796E3" stroke-width="1.5" stroke-linecap="round" stroke-linejoin="round"/>
<g id="Group 1000004790">
<path id="Vector_2" d="M10 9V13" stroke="#1796E3" stroke-width="1.2" stroke-linecap="round" stroke-linejoin="round"/>
<path id="Vector_3" d="M8 11H12" stroke="#1796E3" stroke-width="1.2" stroke-linecap="round" stroke-linejoin="round"/>
</g>
</g>
</g>
</svg>
