<svg width="24" height="24" viewBox="0 0 24 24" fill="none" xmlns="http://www.w3.org/2000/svg">
<g id="Burger Menu">
<g id="Group">
<g id="Group_2">
<path id="Vector" d="M21.4625 7.68682H1.96834C1.30228 7.68682 0.75 7.13454 0.75 6.46848C0.75 5.80242 1.30228 5.25 1.96834 5.25H21.4625C22.1286 5.25 22.6808 5.80228 22.6808 6.46834C22.6808 7.1344 22.1286 7.68668 21.4625 7.68668V7.68682Z" fill="#373D3F"/>
</g>
<g id="Group_3">
<path id="Vector_2" d="M14.9158 13.2101H1.96834C1.30228 13.2101 0.75 12.6578 0.75 11.9918C0.75 11.3257 1.30228 10.7734 1.96834 10.7734H14.9158C15.5819 10.7734 16.1342 11.3257 16.1342 11.9918C16.1342 12.6578 15.5819 13.2101 14.9158 13.2101Z" fill="#373D3F"/>
</g>
<g id="Group_4">
<path id="Vector_3" d="M10.0423 18.7502H1.96834C1.30228 18.7502 0.75 18.1979 0.75 17.5318C0.75 16.8658 1.30228 16.3135 1.96834 16.3135H10.0423C10.7083 16.3135 11.2606 16.8658 11.2606 17.5318C11.2606 18.1979 10.7083 18.7502 10.0423 18.7502Z" fill="#373D3F"/>
</g>
</g>
</g>
</svg>
