<svg width="20" height="20" viewBox="0 0 20 20" fill="none" xmlns="http://www.w3.org/2000/svg">
<g id="Calender">
<g id="Group">
<path id="Vector" fill-rule="evenodd" clip-rule="evenodd" d="M4.57624 1C4.49425 1.00033 4.41571 1.03335 4.35779 1.09186C4.29987 1.15038 4.26727 1.22962 4.26711 1.31229V2.50153H2.39109C1.61074 2.50153 1 3.18895 1 4.00061V14.8725C1 15.6841 1.61074 16.3716 2.39109 16.3716H9.63632C10.4813 17.9362 12.1266 19 14.0151 19C16.7641 19 19 16.7462 19 13.9741C19 12.2538 18.1387 10.7334 16.8282 9.82705V4.00061C16.8282 3.18895 16.2181 2.50153 15.4377 2.50153H13.5617V1.31229C13.5615 1.22952 13.5288 1.15018 13.4708 1.09165C13.4127 1.03312 13.3341 1.00017 13.252 1C13.2112 0.999841 13.1707 1.0078 13.133 1.02341C13.0952 1.03902 13.0609 1.06199 13.0319 1.091C13.003 1.12 12.98 1.15448 12.9643 1.19245C12.9486 1.23043 12.9405 1.27115 12.9404 1.31229V2.50153H4.88779V1.31229C4.88771 1.27115 4.87959 1.23043 4.86388 1.19246C4.84817 1.15448 4.82519 1.12001 4.79625 1.091C4.76732 1.062 4.73299 1.03903 4.69524 1.02341C4.65748 1.0078 4.61705 0.999843 4.57624 1ZM2.39109 3.12732H4.26711V4.31473C4.26695 4.35582 4.27482 4.39654 4.29027 4.43456C4.30571 4.47259 4.32844 4.50717 4.35715 4.53634C4.38585 4.56551 4.41998 4.58869 4.45757 4.60457C4.49516 4.62044 4.53548 4.62869 4.57624 4.62885C4.6172 4.62901 4.65778 4.621 4.69566 4.60527C4.73353 4.58954 4.76794 4.5664 4.7969 4.5372C4.82586 4.508 4.8488 4.47331 4.8644 4.43513C4.88 4.39694 4.88795 4.35602 4.88779 4.31473V3.12732H12.9404V4.31473C12.9402 4.35603 12.9482 4.39695 12.9638 4.43513C12.9794 4.47331 13.0023 4.50801 13.0313 4.53721C13.0603 4.56641 13.0947 4.58954 13.1325 4.60527C13.1704 4.621 13.211 4.62901 13.252 4.62885C13.2928 4.62877 13.3332 4.62058 13.3708 4.60474C13.4085 4.5889 13.4427 4.56573 13.4714 4.53655C13.5002 4.50738 13.523 4.47277 13.5385 4.4347C13.554 4.39664 13.5619 4.35587 13.5617 4.31473V3.12732H15.4377C15.8555 3.12732 16.2075 3.49753 16.2075 4.00061V6.33081H1.62129V4.00061C1.62129 3.49753 1.9733 3.12732 2.39109 3.12732ZM1.62129 6.95722H16.2075V9.46099C15.5454 9.13278 14.8014 8.94826 14.0151 8.94826C11.266 8.94826 9.03199 11.2021 9.03199 13.9741C9.03199 14.5976 9.14565 15.1945 9.35203 15.7458H2.39109C1.9733 15.7458 1.62129 15.3756 1.62129 14.8725V6.95722ZM14.0151 9.57404C14.8673 9.57404 15.6617 9.81952 16.333 10.2438C16.3361 10.2459 16.3392 10.2478 16.3424 10.2498C17.5668 11.0282 18.379 12.4036 18.379 13.9739C18.379 16.4079 16.4283 18.374 14.0148 18.374C12.3059 18.374 10.8302 17.388 10.1142 15.9485C10.1076 15.9315 10.0995 15.9152 10.09 15.8996C9.80976 15.3183 9.65294 14.6651 9.65294 13.974C9.65294 11.54 11.6016 9.57404 14.0151 9.57404ZM13.7126 11.4288C13.6719 11.4286 13.6315 11.4366 13.5938 11.4521C13.5561 11.4677 13.5218 11.4906 13.4928 11.5196C13.4639 11.5485 13.4409 11.5829 13.4252 11.6208C13.4094 11.6587 13.4012 11.6994 13.4011 11.7405V14.7826C13.4009 14.8239 13.4089 14.8649 13.4245 14.903C13.4401 14.9412 13.463 14.9759 13.492 15.0051C13.5209 15.0343 13.5553 15.0574 13.5932 15.0732C13.6311 15.0889 13.6717 15.0969 13.7126 15.0968H15.8293C15.9116 15.0964 15.9904 15.0632 16.0484 15.0042C16.1063 14.9453 16.1387 14.8656 16.1384 14.7826C16.1381 14.7001 16.1054 14.621 16.0475 14.5626C15.9896 14.5042 15.9112 14.4713 15.8293 14.471H14.0218V11.7405C14.0214 11.6579 13.9888 11.5788 13.9309 11.5204C13.873 11.4621 13.7945 11.4291 13.7126 11.4288Z" fill="#101010" stroke="#101010" stroke-width="0.5"/>
</g>
</g>
</svg>
