<svg width="20" height="20" viewBox="0 0 20 20" fill="none" xmlns="http://www.w3.org/2000/svg">
<g id="Calender">
<path id="Vector" d="M17.7143 4H2.28571C1.94472 4 1.6177 4.12643 1.37658 4.35147C1.13546 4.57652 1 4.88174 1 5.2V14.8C1 15.1183 1.13546 15.4235 1.37658 15.6485C1.6177 15.8736 1.94472 16 2.28571 16H17.7143C18.0553 16 18.3823 15.8736 18.6234 15.6485C18.8645 15.4235 19 15.1183 19 14.8V5.2C19 4.88174 18.8645 4.57652 18.6234 4.35147C18.3823 4.12643 18.0553 4 17.7143 4ZM16.3 5.2L10 9.268L3.7 5.2H16.3ZM2.28571 14.8V5.746L9.63357 10.492C9.74118 10.5617 9.86903 10.599 10 10.599C10.131 10.599 10.2588 10.5617 10.3664 10.492L17.7143 5.746V14.8H2.28571Z" fill="#101010"/>
</g>
</svg>
