<svg width="20" height="20" viewBox="0 0 20 20" fill="none" xmlns="http://www.w3.org/2000/svg">
<g id="Frame">
<path id="Vector" d="M3.5 17H15.5C15.8978 17 16.2794 16.8389 16.5607 16.552C16.842 16.2652 17 15.8762 17 15.4706V7.82353C17 7.4179 16.842 7.02889 16.5607 6.74207C16.2794 6.45525 15.8978 6.29412 15.5 6.29412H9.5525C9.30544 6.29281 9.06252 6.22931 8.84532 6.10924C8.62813 5.98918 8.44338 5.81627 8.3075 5.60588L7.6925 4.68824C7.55662 4.47785 7.37187 4.30494 7.15468 4.18487C6.93748 4.06481 6.69456 4.0013 6.4475 4H3.5C3.10218 4 2.72064 4.16113 2.43934 4.44795C2.15804 4.73477 2 5.12379 2 5.52941V15.4706C2 16.3118 2.675 17 3.5 17Z" stroke="#1796E3" stroke-width="1.5" stroke-linecap="round" stroke-linejoin="round"/>
</g>
</svg>
